<?xml version="1.0" standalone="no"?>
<!DOCTYPE svg PUBLIC "-//W3C//DTD SVG 20010904//EN"
 "http://www.w3.org/TR/2001/REC-SVG-20010904/DTD/svg10.dtd">
<svg version="1.0" xmlns="http://www.w3.org/2000/svg"
 width="1000.000000pt" height="1000.000000pt" viewBox="0 0 1000.000000 1000.000000"
 preserveAspectRatio="xMidYMid meet">
<metadata>
Created by potrace 1.11, written by Peter Selinger 2001-2013
</metadata>
<g transform="translate(0.000000,1000.000000) scale(0.100000,-0.100000)"
fill="#000000" stroke="none">
<path d="M3640 5990 c-135 -225 -255 -427 -268 -447 -12 -21 -31 -54 -42 -73
-11 -19 -30 -51 -42 -70 -12 -19 -26 -44 -32 -55 -6 -11 -19 -31 -27 -45 -9
-14 -52 -85 -95 -158 -44 -73 -89 -150 -101 -170 -13 -20 -39 -64 -59 -97 -19
-33 -55 -91 -79 -130 -24 -38 -51 -83 -59 -100 -8 -16 -29 -52 -46 -80 -16
-27 -47 -78 -67 -113 -21 -35 -43 -71 -48 -80 -105 -173 -449 -750 -452 -759
-4 -10 53 -13 288 -13 l294 1 235 394 c129 217 263 441 297 497 34 57 81 136
105 177 24 40 52 88 63 106 11 19 46 78 78 132 32 54 81 134 108 178 26 44 53
89 59 100 6 11 33 56 60 100 27 44 56 94 64 110 9 17 69 118 134 225 l118 195
1340 3 c858 1 1358 -1 1393 -8 110 -20 227 -98 281 -185 177 -287 -54 -649
-397 -622 -102 8 -105 -5 -23 -91 38 -41 72 -84 76 -95 3 -12 12 -29 18 -37
31 -38 57 -138 63 -238 7 -111 15 -128 60 -119 138 24 282 80 403 156 91 57
249 223 309 324 57 98 71 131 109 262 23 79 26 109 26 240 1 155 -7 202 -54
341 -89 257 -329 500 -585 593 -178 64 -83 61 -1747 61 l-1513 -1 -245 -409z"/>
<path d="M4451 5626 c-13 -7 -30 -26 -38 -42 -7 -16 -24 -45 -36 -65 -12 -20
-41 -70 -65 -110 -24 -41 -52 -87 -62 -104 -10 -16 -38 -63 -62 -103 -24 -40
-52 -88 -63 -107 -11 -18 -37 -62 -58 -97 -20 -34 -47 -80 -60 -100 -12 -21
-60 -100 -107 -178 -47 -77 -92 -152 -100 -167 -8 -16 -25 -42 -38 -60 -27
-38 -29 -73 -4 -73 9 0 553 -1 1207 -3 l1190 -2 3 -23 c2 -12 -6 -52 -18 -87
-27 -80 -97 -162 -172 -199 l-52 -26 -1200 0 -1201 -1 -142 -239 -141 -240
1366 0 c1522 0 1426 -4 1577 70 168 82 304 216 380 375 24 50 59 152 80 230
34 128 37 148 32 235 -6 120 -35 188 -110 263 -61 60 -111 92 -170 109 -31 9
-279 14 -902 18 l-860 5 -3 23 c-2 14 5 33 16 45 11 12 35 51 55 87 20 36 45
75 57 88 l21 22 708 0 708 0 77 25 c88 29 130 54 203 119 80 72 143 176 159
262 13 69 96 64 -1085 64 -863 -1 -1071 -3 -1090 -14z"/>
</g>
</svg>
